<svg xmlns="http://www.w3.org/2000/svg" xmlns:xlink="http://www.w3.org/1999/xlink" width="64" zoomAndPan="magnify" viewBox="0 0 48 48" height="64" preserveAspectRatio="xMidYMid meet" version="1.2"><defs><clipPath id="6b42efb57e"><path d="M 0.488281 0 L 47.507812 0 L 47.507812 47 L 0.488281 47 Z M 0.488281 0 "/></clipPath></defs><g id="af7dfcdba7"><g clip-rule="nonzero" clip-path="url(#6b42efb57e)"><path style=" stroke:none;fill-rule:nonzero;fill:#000000;fill-opacity:1;" d="M 24 0.582031 C 11.011719 0.582031 0.488281 11.109375 0.488281 24.09375 C 0.488281 34.480469 7.226562 43.292969 16.566406 46.398438 C 17.742188 46.617188 18.171875 45.890625 18.171875 45.265625 C 18.171875 44.707031 18.152344 43.230469 18.140625 41.269531 C 11.601562 42.6875 10.222656 38.117188 10.222656 38.117188 C 9.152344 35.402344 7.609375 34.675781 7.609375 34.675781 C 5.476562 33.21875 7.773438 33.25 7.773438 33.25 C 10.132812 33.414062 11.375 35.671875 11.375 35.671875 C 13.46875 39.265625 16.875 38.226562 18.21875 37.625 C 18.433594 36.105469 19.039062 35.070312 19.710938 34.480469 C 14.488281 33.894531 9 31.871094 9 22.863281 C 9 20.296875 9.910156 18.199219 11.421875 16.554688 C 11.15625 15.960938 10.363281 13.570312 11.625 10.332031 C 11.625 10.332031 13.59375 9.703125 18.089844 12.742188 C 19.972656 12.21875 21.96875 11.960938 23.96875 11.949219 C 25.96875 11.960938 27.964844 12.21875 29.847656 12.742188 C 34.3125 9.703125 36.28125 10.332031 36.28125 10.332031 C 37.546875 13.570312 36.753906 15.960938 36.515625 16.554688 C 38.015625 18.199219 38.925781 20.296875 38.925781 22.863281 C 38.925781 31.894531 33.429688 33.882812 28.199219 34.460938 C 29.023438 35.167969 29.789062 36.609375 29.789062 38.8125 C 29.789062 41.957031 29.757812 44.484375 29.757812 45.25 C 29.757812 45.867188 30.167969 46.601562 31.375 46.367188 C 40.78125 43.28125 47.511719 34.464844 47.511719 24.09375 C 47.511719 11.109375 36.984375 0.582031 24 0.582031 "/></g></g></svg>